<?xml version="1.0" encoding="UTF-8" standalone="no"?>
<svg
   width="411"
   height="137"
   viewBox="0 0 411 137"
   fill="none"
   version="1.1"
   id="svg7"
   sodipodi:docname="Library.svg"
   inkscape:version="1.3.2 (091e20e, 2023-11-25, custom)"
   xmlns:inkscape="http://www.inkscape.org/namespaces/inkscape"
   xmlns:sodipodi="http://sodipodi.sourceforge.net/DTD/sodipodi-0.dtd"
   xmlns="http://www.w3.org/2000/svg"
   xmlns:svg="http://www.w3.org/2000/svg">
  <defs
     id="defs7" />
  <sodipodi:namedview
     id="namedview7"
     pagecolor="#ffffff"
     bordercolor="#000000"
     borderopacity="0.25"
     inkscape:showpageshadow="2"
     inkscape:pageopacity="0.0"
     inkscape:pagecheckerboard="0"
     inkscape:deskcolor="#d1d1d1"
     inkscape:zoom="2.9951338"
     inkscape:cx="233.87937"
     inkscape:cy="68.611292"
     inkscape:window-width="1920"
     inkscape:window-height="991"
     inkscape:window-x="-9"
     inkscape:window-y="-9"
     inkscape:window-maximized="1"
     inkscape:current-layer="svg7" />
  <path
     d="M2.48248 49.4766C2.47076 49.5469 2.45514 49.6211 2.4317 49.6914C2.45514 49.6211 2.47076 49.5469 2.48248 49.4766ZM2.49811 49.3906C2.49811 49.5195 2.51373 49.9609 2.66998 50.5625C2.99029 51.7695 3.82233 52.8633 4.95514 53.5547L49.3731 80.5898C49.2989 80.1523 49.2676 79.7031 49.2676 79.2422C49.2676 74.8906 51.1505 71.8867 55.5723 69.1914L97.8536 43.4414C98.4122 43.1016 98.4708 42.5391 98.4708 42.3125C98.4708 42.0859 98.4122 41.5234 97.8536 41.1836L52.9434 13.832L7.56061 41.4688C3.87311 43.7148 2.50592 45.8242 2.50592 49.2461C2.50592 49.293 2.50201 49.3438 2.49811 49.3906ZM55.0801 86.2734C54.1505 86.2734 53.252 86.0234 52.42 85.5156C52.252 85.4102 52.0919 85.3047 51.9356 85.1797L3.70904 55.8242C1.99029 54.7852 0.771544 53.1602 0.267638 51.2656C0.0215441 50.3164 -0.0292371 49.6719 0.0137319 49.2344C0.0176379 44.8867 1.90045 41.8867 6.31842 39.1953L52.3223 11.1758C52.7051 10.9414 53.1778 10.9414 53.5645 11.1758L99.0997 38.9102C100.268 39.6211 100.963 40.8945 100.963 42.3125C100.963 43.7305 100.268 45.0078 99.0997 45.7148L56.8184 71.4648C53.127 73.7148 51.7598 75.8203 51.7598 79.2422C51.7598 80.7969 52.3653 82.2266 53.338 83.0078C53.3575 83.0273 53.3848 83.043 53.4044 83.0625C53.4903 83.125 53.5762 83.1836 53.6661 83.2383C54.6544 83.8438 55.8262 83.7656 57.0528 83.0195L99.8184 56.9727L96.3458 54.5859C95.7715 54.1953 95.6114 53.3789 95.9825 52.7695C96.3614 52.1641 97.1309 51.9922 97.709 52.3906L102.877 55.9414C103.24 56.1914 103.455 56.6211 103.443 57.0781C103.432 57.5352 103.197 57.9531 102.818 58.1797L58.3028 85.293C57.2286 85.9492 56.1348 86.2734 55.0801 86.2734Z"
     fill="#7342d6"
     id="path3" />
  <path
     d="M75.8927 102.816C75.463 102.816 75.0451 102.582 74.8146 102.16C74.4708 101.535 74.674 100.73 75.2716 100.367L99.8185 85.414L96.3458 83.0312C95.7716 82.6328 95.6115 81.8203 95.9826 81.2109C96.3615 80.6015 97.131 80.4297 97.7091 80.8281L102.877 84.3828C103.24 84.6328 103.455 85.0625 103.443 85.5195C103.432 85.9765 103.197 86.3906 102.818 86.6211L76.5138 102.641C76.3185 102.766 76.1036 102.816 75.8927 102.816Z"
     fill="#7342d6"
     id="path4" />
  <path
     d="M2.48248 77.9218C2.47076 77.9921 2.45514 78.0624 2.4317 78.1288C2.45514 78.0624 2.47076 77.9921 2.48248 77.9218ZM52.627 113.844C52.4122 113.844 52.1973 113.785 52.002 113.668L3.70904 84.2695C1.99029 83.2226 0.771544 81.6015 0.267638 79.7031C0.0215441 78.7577 -0.0292371 78.1171 0.0137319 77.6757C0.0176379 73.3359 1.89264 70.3359 6.28717 67.6523L8.38092 66.2187C8.95904 65.8242 9.73248 65.996 10.1075 66.6015C10.4786 67.2148 10.3184 68.0273 9.74029 68.4218L7.6192 69.8749C7.59967 69.8867 7.58014 69.8984 7.56061 69.9101C3.87311 72.1562 2.50592 74.2656 2.50592 77.6874C2.50592 77.7343 2.50201 77.7812 2.49811 77.832C2.49811 77.957 2.51373 78.4062 2.66998 78.9999C2.99029 80.2148 3.82233 81.3046 4.95514 81.9921L53.252 111.391C53.8458 111.754 54.0489 112.559 53.7012 113.184C53.4747 113.609 53.0528 113.844 52.627 113.844Z"
     fill="#7342d6"
     id="path5" />
  <path
     d="M67.3887 118.145C67.1777 118.145 66.9629 118.086 66.7754 117.973C66.3848 117.742 66.1426 117.305 66.1426 116.832V109.016L58.2949 113.738C56.2871 114.961 54.1973 115.039 52.4199 113.957C50.4785 112.77 49.2676 110.367 49.2676 107.688C49.2676 103.328 51.1504 100.324 55.5723 97.6328L97.8535 71.8789C98.4121 71.543 98.4707 70.9805 98.4707 70.7539C98.4707 70.5234 98.4121 69.9649 97.8535 69.625C97.2598 69.2617 97.0566 68.457 97.4004 67.8281C97.7402 67.2031 98.5059 66.9883 99.0996 67.3477C100.268 68.0586 100.963 69.332 100.963 70.7539C100.963 72.1719 100.268 73.4453 99.0996 74.1563L56.8184 99.9102C53.127 102.152 51.7598 104.262 51.7598 107.688C51.7598 109.406 52.5059 110.977 53.666 111.684C54.6543 112.285 55.8262 112.211 57.0527 111.461L66.7715 105.617C67.1582 105.383 67.6309 105.387 68.0137 105.621C68.3965 105.855 68.6348 106.293 68.6348 106.758V114.516L74.6465 110.715V101.504C74.6465 99.6836 73.7129 97.9883 72.2129 97.086C71.6113 96.7227 71.4082 95.9219 71.748 95.293C72.0879 94.6602 72.8496 94.4453 73.4434 94.8047C75.7207 96.1719 77.1387 98.7422 77.1387 101.504V111.461C77.1387 111.926 76.9082 112.352 76.5293 112.586L68.0293 117.957C67.8301 118.082 67.6074 118.145 67.3887 118.145Z"
     fill="#7342d6"
     id="path6" />
  <path
     d="M45.166 64.0157C44.9629 64.0157 44.7559 63.961 44.5645 63.8477L6.33791 41.4805C5.73635 41.129 5.5176 40.3282 5.85354 39.6954C6.18166 39.0586 6.93947 38.8282 7.54494 39.1797L45.7676 61.5508C46.3731 61.9024 46.5918 62.7032 46.2559 63.3399C46.0293 63.7696 45.6035 64.0157 45.166 64.0157Z"
     fill="#7342d6"
     id="path7" />
  <text
     xml:space="preserve"
     style="font-size:29.1247px;fill:#28170b;stroke:#28170b;stroke-width:0;stroke-linejoin:round"
     x="110.22602"
     y="58.508724"
     id="text7"
     transform="scale(0.99808108,1.0019226)"><tspan
       sodipodi:role="line"
       id="tspan7"
       x="110.22602"
       y="58.508724"
       style="font-style:normal;font-variant:normal;font-weight:bold;font-stretch:normal;font-size:37.3333px;font-family:Arial;-inkscape-font-specification:'Arial Bold';stroke-width:0">Biblioteca Digital</tspan><tspan
       sodipodi:role="line"
       x="110.22602"
       y="98.118561"
       id="tspan8"
       style="font-size:20.3873px;stroke-width:0" /></text>
  <text
     xml:space="preserve"
     style="font-style:normal;font-variant:normal;font-weight:normal;font-stretch:normal;font-size:24px;font-family:'Arial Rounded MT Bold';-inkscape-font-specification:'Arial Rounded MT Bold, ';fill:#28170b;stroke:#28170b;stroke-width:0;stroke-linejoin:round"
     x="111.84808"
     y="91.147835"
     id="text9"><tspan
       sodipodi:role="line"
       id="tspan9"
       x="111.84808"
       y="91.147835"
       style="font-style:normal;font-variant:normal;font-weight:normal;font-stretch:normal;font-size:24px;font-family:Arial;-inkscape-font-specification:Arial">Proyecto de Innovación</tspan></text>
  <text
     xml:space="preserve"
     style="font-style:normal;font-variant:normal;font-weight:bold;font-stretch:normal;font-size:26.6667px;font-family:Arial;-inkscape-font-specification:'Arial Bold';fill:#28170b;stroke:#28170b;stroke-width:0;stroke-linejoin:round"
     x="111.18034"
     y="123.53371"
     id="text10"><tspan
       sodipodi:role="line"
       id="tspan10"
       x="111.18034"
       y="123.53371">2024</tspan></text>
</svg>
